<svg xmlns="http://www.w3.org/2000/svg" width="26" height="26" viewBox="0 0 26 26" fill="none">
  <path d="M15.1668 2.16669H6.50016C5.92553 2.16669 5.37443 2.39496 4.9681 2.80129C4.56177 3.20762 4.3335 3.75872 4.3335 4.33335V21.6667C4.3335 22.2413 4.56177 22.7924 4.9681 23.1987C5.37443 23.6051 5.92553 23.8334 6.50016 23.8334H19.5002C20.0748 23.8334 20.6259 23.6051 21.0322 23.1987C21.4386 22.7924 21.6668 22.2413 21.6668 21.6667V8.66669L15.1668 2.16669Z" stroke="#B2B2B2" stroke-width="2" stroke-linecap="round" stroke-linejoin="round"/>
  <path d="M15.1665 2.16669V8.66669H21.6665" stroke="#B2B2B2" stroke-width="2" stroke-linecap="round" stroke-linejoin="round"/>
  <path d="M17.3332 14.0833H8.6665" stroke="#B2B2B2" stroke-width="2" stroke-linecap="round" stroke-linejoin="round"/>
  <path d="M17.3332 18.4167H8.6665" stroke="#B2B2B2" stroke-width="2" stroke-linecap="round" stroke-linejoin="round"/>
  <path d="M10.8332 9.75H9.74984H8.6665" stroke="#B2B2B2" stroke-width="2" stroke-linecap="round" stroke-linejoin="round"/>
</svg>