<svg xmlns="http://www.w3.org/2000/svg" width="15" height="21" viewBox="0 0 16 23" fill="none">
  <path d="M8.00036 1.02271C7.24087 1.02271 6.51249 1.32441 5.97546 1.86144C5.43842 2.39848 5.13672 3.12686 5.13672 3.88634V11.5227C5.13672 12.2822 5.43842 13.0106 5.97546 13.5476C6.51249 14.0846 7.24087 14.3863 8.00036 14.3863C8.75984 14.3863 9.48822 14.0846 10.0253 13.5476C10.5623 13.0106 10.864 12.2822 10.864 11.5227V3.88634C10.864 3.12686 10.5623 2.39848 10.0253 1.86144C9.48822 1.32441 8.75984 1.02271 8.00036 1.02271Z" fill="currentColor" stroke="currentColor" stroke-width="1.90909" stroke-linecap="round" stroke-linejoin="round"/>
  <path fill-rule="evenodd" clip-rule="evenodd" d="M1.31832 8.65918C1.8455 8.65918 2.27286 9.08654 2.27286 9.61373V11.5228C2.27286 13.0418 2.87627 14.4985 3.95034 15.5726C5.02441 16.6467 6.48117 17.2501 8.00013 17.2501C9.5191 17.2501 10.9759 16.6467 12.0499 15.5726C13.124 14.4985 13.7274 13.0418 13.7274 11.5228V9.61373C13.7274 9.08654 14.1548 8.65918 14.682 8.65918C15.2091 8.65918 15.6365 9.08654 15.6365 9.61373V11.5228C15.6365 13.5481 14.832 15.4904 13.3999 16.9225C12.1946 18.1278 10.628 18.8885 8.95468 19.0993V21.0683H11.8183C12.3455 21.0683 12.7729 21.4956 12.7729 22.0228C12.7729 22.55 12.3455 22.9774 11.8183 22.9774H8.00013H4.18195C3.65477 22.9774 3.22741 22.55 3.22741 22.0228C3.22741 21.4956 3.65477 21.0683 4.18195 21.0683H7.04559V19.0993C5.37227 18.8885 3.80564 18.1278 2.60041 16.9225C1.16831 15.4904 0.36377 13.5481 0.36377 11.5228V9.61373C0.36377 9.08654 0.791134 8.65918 1.31832 8.65918Z" fill="currentColor"/>
</svg>